<?xml version="1.0" encoding="utf-8"?>
<svg viewBox="0 0 500 500" xmlns="http://www.w3.org/2000/svg">
  <g transform="matrix(1, 0, 0, 1, -75.400692, -8.724223)"/>
  <g transform="matrix(1, 0, 0, 1, -75.400692, -8.724223)"/>
  <g transform="matrix(1, 0, 0, 1, -75.400692, -8.724223)"/>
  <g transform="matrix(1, 0, 0, 1, -75.400692, -8.724223)"/>
  <g transform="matrix(1, 0, 0, 1, -75.400692, -8.724223)"/>
  <g transform="matrix(1, 0, 0, 1, -75.400692, -8.724223)"/>
  <g transform="matrix(1, 0, 0, 1, -75.400692, -8.724223)"/>
  <g transform="matrix(1, 0, 0, 1, -75.400692, -8.724223)"/>
  <g transform="matrix(1, 0, 0, 1, -75.400692, -8.724223)"/>
  <g transform="matrix(1, 0, 0, 1, -75.400692, -8.724223)"/>
  <g transform="matrix(1, 0, 0, 1, -75.400692, -8.724223)"/>
  <g transform="matrix(1, 0, 0, 1, -75.400692, -8.724223)"/>
  <g transform="matrix(1, 0, 0, 1, -75.400692, -8.724223)"/>
  <g transform="matrix(1, 0, 0, 1, -75.400692, -8.724223)"/>
  <g transform="matrix(1, 0, 0, 1, -75.400692, -8.724223)"/>
  <g id="Layer_1" transform="matrix(1.499999, 0, 0, 1.5, -518.00061, -518.001221)">
    <title>Layer 1</title>
    <g id="svg_35">
      <g id="svg_5" transform="matrix(0.666667, 0, 0, 0.666667, 0, 0)">
        <g id="svg_6">
          <path d="m627.35273,918.86973c-54.243,-43.222 -85.352,-107.762 -85.352,-177.07c0,-69.306 31.107,-133.845 85.348,-177.067c6.479,-5.163 7.545,-14.601 2.382,-21.079c-5.162,-6.479 -14.6,-7.546 -21.079,-2.383c-61.423,48.947 -96.651,122.037 -96.651,200.529c0,78.495 35.229,151.586 96.656,200.532c6.475,5.161 15.914,4.098 21.079,-2.383c5.162,-6.479 4.096,-15.916 -2.383,-21.079z" id="svg_7" style="stroke: rgb(0, 0, 0); fill: rgb(255, 255, 255); stroke-miterlimit: 1; stroke-width: 10.5px;"/>
        </g>
      </g>
      <g id="svg_8" transform="matrix(0.666667, 0, 0, 0.666667, 0, 0)">
        <g id="svg_9">
          <path d="m927.35173,541.27173c-6.48,-5.162 -15.916,-4.096 -21.079,2.383c-5.163,6.479 -4.097,15.916 2.382,21.079c54.239,43.223 85.346,107.761 85.346,177.066c0,69.306 -31.107,133.844 -85.347,177.066c-6.479,5.163 -7.545,14.601 -2.382,21.079c5.165,6.482 14.604,7.542 21.079,2.383c61.422,-48.947 96.65,-122.037 96.65,-200.528s-35.228,-151.581 -96.649,-200.528z" id="svg_10" style="stroke: rgb(0, 0, 0); fill: rgb(255, 255, 255); stroke-miterlimit: 1; stroke-width: 10.5px;"/>
        </g>
      </g>
      <g id="svg_11" transform="matrix(0.666667, 0, 0, 0.666667, 0, 0)">
        <g id="svg_12">
          <path d="m677.33573,856.25773c-35.166,-27.971 -55.335,-69.69 -55.335,-114.458c0,-44.769 20.169,-86.488 55.336,-114.46c6.483,-5.157 7.559,-14.593 2.401,-21.077c-5.158,-6.484 -14.594,-7.559 -21.077,-2.402c-42.363,33.697 -66.66,83.973 -66.66,137.939c0,53.965 24.297,104.241 66.659,137.937c6.488,5.159 15.922,4.079 21.077,-2.402c5.157,-6.483 4.082,-15.92 -2.401,-21.077z" id="svg_13" style="stroke: rgb(0, 0, 0); fill: rgb(255, 255, 255); stroke-miterlimit: 1; stroke-width: 10.5px;"/>
        </g>
      </g>
      <g id="svg_14" transform="matrix(0.666667, 0, 0, 0.666667, 0, 0)">
        <g id="svg_15">
          <path d="m877.34173,603.86273c-6.484,-5.156 -15.919,-4.082 -21.077,2.402c-5.157,6.483 -4.082,15.92 2.401,21.077c35.166,27.971 55.335,69.689 55.335,114.458c0,44.769 -20.169,86.488 -55.336,114.459c-6.483,5.157 -7.559,14.593 -2.401,21.077c5.16,6.487 14.598,7.556 21.077,2.402c42.363,-33.697 66.66,-83.973 66.66,-137.938c0,-53.965 -24.297,-104.241 -66.659,-137.937z" id="svg_16" style="stroke: rgb(0, 0, 0); fill: rgb(255, 255, 255); stroke-miterlimit: 1; stroke-width: 10.5px;"/>
        </g>
      </g>
      <g id="svg_17" transform="matrix(0.666667, 0, 0, 0.666667, 0, 0)">
        <g id="svg_18">
          <path d="m768.00073,667.00073c-41.355,0 -75,33.645 -75,75c0,36.219 25.808,66.522 60,73.491l0,167.509c0,8.284 6.716,15 15,15s15,-6.716 15,-15l0,-167.509c34.192,-6.968 60,-37.271 60,-73.491c0,-41.355 -33.645,-75 -75,-75zm0,120c-24.813,0 -45,-20.187 -45,-45s20.187,-45 45,-45s45,20.187 45,45s-20.187,45 -45,45z" id="svg_19" style="stroke: rgb(0, 0, 0); fill: rgb(255, 255, 255); stroke-miterlimit: 1; stroke-width: 10.5px;"/>
        </g>
      </g>
      <g id="svg_20" transform="matrix(0.666667, 0, 0, 0.666667, 0, 0)"/>
      <g id="svg_21" transform="matrix(0.666667, 0, 0, 0.666667, 0, 0)"/>
      <g id="svg_22" transform="matrix(0.666667, 0, 0, 0.666667, 0, 0)"/>
      <g id="svg_23" transform="matrix(0.666667, 0, 0, 0.666667, 0, 0)"/>
      <g id="svg_24" transform="matrix(0.666667, 0, 0, 0.666667, 0, 0)"/>
      <g id="svg_25" transform="matrix(0.666667, 0, 0, 0.666667, 0, 0)"/>
      <g id="svg_26" transform="matrix(0.666667, 0, 0, 0.666667, 0, 0)"/>
      <g id="svg_27" transform="matrix(0.666667, 0, 0, 0.666667, 0, 0)"/>
      <g id="svg_28" transform="matrix(0.666667, 0, 0, 0.666667, 0, 0)"/>
      <g id="svg_29" transform="matrix(0.666667, 0, 0, 0.666667, 0, 0)"/>
      <g id="svg_30" transform="matrix(0.666667, 0, 0, 0.666667, 0, 0)"/>
      <g id="svg_31" transform="matrix(0.666667, 0, 0, 0.666667, 0, 0)"/>
      <g id="svg_32" transform="matrix(0.666667, 0, 0, 0.666667, 0, 0)"/>
      <g id="svg_33" transform="matrix(0.666667, 0, 0, 0.666667, 0, 0)"/>
      <g id="svg_34" transform="matrix(0.666667, 0, 0, 0.666667, 0, 0)"/>
    </g>
  </g>
</svg>